# AST/ASF file generated using VICON BodyLanguage
# -----------------------------------------------
:version 1.10
:name VICON
:units
  mass 1.0
  length 0.45
  angle deg
:documentation
   .ast/.asf automatically generated from VICON data using
   VICON BodyBuilder and BodyLanguage model FoxedUp or BRILLIANT.MOD
:root
   order TX TY TZ RX RY RZ
   axis XYZ
   position 0 0 0  
   orientation 0 0 0 
:bonedata
  begin
     id 1 
     name lhipjoint
     direction 0.623529 -0.717805 0.309788 
     length 2.23224 
     axis 0 0 0  XYZ
  end
  begin
     id 2 
     name lfemur
     direction 0.34202 -0.939693 0  
     length 7.11402  
     axis 0 0 20  XYZ
    dof rx ry rz
    limits (-160.0 20.0)
           (-70.0 70.0)
           (-60.0 70.0)
  end
  begin
     id 3 
     name ltibia
     direction 0.34202 -0.939693 0   
     length 6.78496   
     axis 0 0 20   XYZ
    dof rx
    limits (-10.0 170.0)
  end
  begin
     id 4 
     name lfoot
     direction 0.125078 -0.343648 0.930732   
     length 1.84054   
     axis -90 7.62852e-016 20   XYZ
    dof rx rz
    limits (-45.0 90.0)
           (-70.0 20.0)
  end
  begin
     id 5 
     name ltoes
     direction 1.53565e-011 -4.21893e-011 1   
     length 0.916474   
     axis -90 7.62852e-016 20   XYZ
    dof rx
    limits (-90.0 20.0)
  end
  begin
     id 6 
     name rhipjoint
     direction -0.564688 -0.757748 0.327026   
     length 2.11457  
     axis 0 0 0  XYZ 
  end
  begin
     id 7 
     name rfemur
     direction -0.34202 -0.939693 0   
     length 7.14609   
     axis 0 0 -20   XYZ
    dof rx ry rz
    limits (-160.0 20.0)
           (-70.0 70.0)
           (-70.0 60.0)
  end
  begin
     id 8 
     name rtibia
     direction -0.34202 -0.939693 0   
     length 6.78101   
     axis 0 0 -20   XYZ
    dof rx
    limits (-10.0 170.0)
 end
 begin
     id 9 
     name rfoot
     direction -0.0992671 -0.272734 0.956955   
     length 1.96168  
     axis -90 -7.62852e-016 -20   XYZ
    dof rx rz
    limits (-45.0 90.0)
           (-20.0 70.0)
  end
  begin
     id 10 
     name rtoes
     direction -1.5356e-011 -4.21891e-011 1   
     length 0.982933   
     axis -90 -7.62852e-016 -20   XYZ
    dof rx
    limits (-90.0 20.0)
  end
  begin
     id 11 
     name lowerback
     direction -0.00596953 0.998668 0.0512524   
     length 1.87557   
     axis 0 0 0   XYZ
    dof rx ry rz
    limits (-20.0 45.0)
           (-30.0 30.0)
           (-30.0 30.0)
  end
  begin
     id 12 
     name upperback
     direction 0.00584879 0.999652 0.0257308   
     length 1.87883   
     axis 0 0 0   XYZ
    dof rx ry rz
    limits (-20.0 45.0)
           (-30.0 30.0)
           (-30.0 30.0)
  end
  begin
     id 13 
     name thorax
     direction 0.010104 0.999947 0.00178881   
     length 1.87779   
     axis 0 0 0   XYZ
    dof rx ry rz
    limits (-20.0 45.0)
           (-30.0 30.0)
           (-30.0 30.0)
  end
  begin
     id 14 
     name lowerneck
     direction 0.0120771 0.995934 -0.0892773   
     length 1.40897   
     axis 0 0 0   XYZ
    dof rx ry rz
    limits (-20.0 45.0)
           (-30.0 30.0)
           (-30.0 30.0)
  end
  begin
     id 15 
     name upperneck
     direction -0.030568 0.999465 -0.0116366   
     length 1.38661   
     axis 0 0 0   XYZ
    dof rx ry rz
    limits (-20.0 45.0)
           (-30.0 30.0)
           (-30.0 30.0)
  end
  begin
     id 16
     name head
     direction -0.0170715 0.999854 -0.00104426  
     length 1.47052  
     axis 0 0 0   XYZ
    dof rx ry rz
    limits (-20.0 45.0)
           (-30.0 30.0)
           (-30.0 30.0)
  end
  begin
     id 17 
     name lclavicle
     direction 0.977763 0.206143 0.038532  
     length 3.02424  
     axis 0 0 0   XYZ
    dof ry rz
    limits (-20.0 10.0)
           (0.0 20.0)
  end
  begin
     id 18 
     name lhumerus
     direction 1 -4.48965e-011 -2.62654e-027   
     length 4.68382   
     axis 180 -30 -90   XYZ
    dof rx ry rz
    limits (-60.0 90.0)
           (-90.0 90.0)
           (-90.0 90.0)
  end
  begin
     id 19
     name lradius
     direction 1 -4.48973e-011 -1.54954e-027   
     length 2.98124   
     axis 180 -30 -90   XYZ
    dof rx
    limits (-10.0 170.0)
  end
  begin
     id 20
     name lwrist
     direction 1 -4.48959e-011 7.20928e-028   
     length 1.49062   
     axis -5.52449e-016 90 90   XYZ
    dof ry
    limits (-180.0 0.0)
 end
  begin
     id 21 
     name lhand
     direction 1 -4.48971e-011 1.44186e-027   
     length 0.707595   
     axis -9.20027e-016 90 90   XYZ
    dof rx rz
    limits (-90.0 90.0)
           (-45.0 45.0)
  end
  begin
     id 22 
     name lfingers
     direction 1 -4.48985e-011 2.88371e-027   
     length 0.570481   
     axis -1.84005e-015 90 90   XYZ
    dof rx
    limits (0.0 90.0)
  end
  begin
     id 23
     name lthumb
     direction 0.707107 -6.34929e-011 0.707107   
     length 0.819101   
     axis -90 45 2.85299e-015   XYZ
    dof rx rz
    limits (-45.0 45.0)
           (-45.0 45.0)
  end
  begin
     id 24 
     name rclavicle
     direction -0.958661 0.284411 -0.00895327   
     length 3.11921  
     axis 0 0 0   XYZ 
    dof ry rz
    limits (-10.0 20.0)
           (-20.0 0.0)
  end
  begin
     id 25 
     name rhumerus
     direction -1 -4.48963e-011 -4.22193e-027  
     length 4.75876   
     axis 180 30 90   XYZ
    dof rx ry rz
    limits (-90.0 60.0)
           (-90.0 90.0)
           (-90.0 90.0)
  end
  begin
     id 26 
     name rradius
     direction -1 -4.48968e-011 -1.07616e-027   
     length 2.93293   
     axis 180 30 90   XYZ
    dof rx
    limits (-10.0 170.0)
  end
  begin
     id 27 
     name rwrist
     direction -1 -4.48965e-011 7.20928e-028   
     length 1.46647   
     axis -5.52449e-016 -90 -90   XYZ
    dof ry
    limits (-180.0 0.0)
  end
  begin
     id 28
     name rhand
     direction -1 -4.48971e-011 1.44186e-027   
     length 0.831748   
     axis -9.20027e-016 -90 -90   XYZ
    dof rx rz
    limits (-90.0 90.0)
           (-45.0 45.0)
  end
  begin
     id 29
     name rfingers
     direction -1 -4.48961e-011 2.88371e-027   
     length 0.670577   
     axis -1.84005e-015 -90 -90   XYZ
    dof rx
    limits (0.0 90.0)
  end
  begin
     id 30
     name rthumb
     direction -0.707107 -6.34929e-011 0.707107   
     length 0.962818   
     axis -90 -45 -2.85299e-015   XYZ
    dof rx rz
    limits (-45.0 45.0)
           (-45.0 45.0)
  end
:hierarchy
  begin
    root lhipjoint rhipjoint lowerback
    lhipjoint lfemur
    lfemur ltibia
    ltibia lfoot
    lfoot ltoes
    rhipjoint rfemur
    rfemur rtibia
    rtibia rfoot
    rfoot rtoes
    lowerback upperback
    upperback thorax
    thorax lowerneck lclavicle rclavicle
    lowerneck upperneck
    upperneck head
    lclavicle lhumerus
    lhumerus lradius
    lradius lwrist
    lwrist lhand lthumb
    lhand lfingers
    rclavicle rhumerus
    rhumerus rradius
    rradius rwrist
    rwrist rhand rthumb
    rhand rfingers
  end

#!OML:ASF E:\id_vita\Project 1\Capture day 1\Session 1\Female.ASF
:FULLY-SPECIFIED
:DEGREES
478
root 34.7968 13.3569 -0.590072 -115.024 -88.0708 -189.094
lowerback 8.14208 -2.96643 0.0355061
upperback 3.02894 -4.08649 -2.93541
thorax -1.63991 -2.06198 -2.6586
lowerneck -14.1646 3.31768 -6.68817
upperneck -12.6372 5.4934 12.1233
head -1.96262 2.59882 4.9709
rclavicle 7.15625e-014 4.85035e-014
rhumerus 18.8003 34.0963 -76.2222
rradius 53.352
rwrist 12.8157
rhand -42.6813 89.3907
rfingers 7.12502
rthumb -15.5514 59.996
lclavicle 7.15625e-014 4.85035e-014
lhumerus 22.2495 -27.913 45.7616
lradius 58.8904
lwrist -15.7567
lhand -60.8921 74.0393
lfingers 7.12502
lthumb -33.0007 -821.039
rfemur -47.0541 -1.66296 18.0554
rtibia 72.2986
rfoot -8.08729 -9.75253
rtoes -5.85482
lfemur -67.0767 1.07302 -27.664
ltibia 81.5647
lfoot -30.5303 -4.29057
ltoes -9.86405
479
root 34.7517 13.3493 -0.590586 -115.402 -88.1165 -188.812
lowerback 8.19462 -2.93919 -0.0665224
upperback 3.09005 -4.05417 -2.8313
thorax -1.58977 -2.0455 -2.49657
lowerneck -14.3614 3.32421 -6.68863
upperneck -12.4576 5.49108 12.0446
head -1.87871 2.61139 4.95058
rclavicle 0 9.54166e-015
rhumerus 18.429 33.9509 -76.3579
rradius 53.2525
rwrist 13.8584
rhand -43.4285 88.5082
rfingers 7.12502
rthumb -16.2709 59.1709
lclavicle 0 9.54166e-015
lhumerus 22.3418 -27.9004 45.9007
lradius 58.7154
lwrist -15.9979
lhand -60.6062 74.0094
lfingers 7.12502
lthumb -32.7288 -821.066
rfemur -48.1162 -1.70774 18.224
rtibia 73.7519
rfoot -8.60581 -9.67336
rtoes -5.76384
lfemur -66.6943 1.1662 -27.6556
ltibia 81.4637
lfoot -30.4832 -4.31319
ltoes -9.25756
480
root 34.709 13.3379 -0.587581 -112.023 -88.269 -192.231
lowerback 8.11013 -3.01399 0.0038735
upperback 3.15443 -4.14017 -2.7192
thorax -1.47711 -2.08663 -2.41856
lowerneck -14.377 3.28635 -6.96175
upperneck -12.4391 5.48836 12.2275
head -1.87938 2.62108 5.05486
rclavicle 1.59028e-014 -3.18055e-015
rhumerus 18.8445 33.9251 -76.4088
rradius 53.0707
rwrist 13.3968
rhand -42.5135 -90.285
rfingers 7.12502
rthumb -15.3898 60.8778
lclavicle 1.59028e-014 -3.18055e-015
lhumerus 22.2664 -27.8579 46.1396
lradius 58.5626
lwrist -15.9301
lhand -60.4395 74.2911
lfingers 7.12502
lthumb -32.5701 -821.381
rfemur -49.2147 -1.93792 18.4605
rtibia 75.1714
rfoot -8.96088 -9.60928
rtoes -5.68909
lfemur -66.3857 1.11263 -27.626
ltibia 81.3416
lfoot -30.3654 -4.55458
ltoes -7.92735
481
root 34.658 13.3291 -0.578055 -97.8013 -88.5108 -206.565
lowerback 8.05153 -3.14525 0.262256
upperback 3.23166 -4.29022 -2.68128
thorax -1.38718 -2.15896 -2.51502
lowerneck -14.2551 3.27578 -6.94696
upperneck -12.5044 5.47258 12.1945
head -1.91479 2.60804 5.03867
rclavicle 4.77083e-015 1.11319e-014
rhumerus 18.7695 33.7117 -76.3441
rradius 53.3718
rwrist 12.7745
rhand -41.7681 -91.2299
rfingers 7.12502
rthumb -14.6718 61.769
lclavicle 4.77083e-015 1.11319e-014
lhumerus 22.3691 -27.9414 46.229
lradius 58.4589
lwrist -15.7822
lhand -60.7673 74.4529
lfingers 7.12502
lthumb -32.882 -821.478
rfemur -50.2093 -2.47321 18.6937
rtibia 76.5345
rfoot -9.21562 -9.50517
rtoes -5.65552
lfemur -65.9561 0.789225 -27.6533
ltibia 81.1557
lfoot -30.2226 -4.63144
ltoes -7.24581
482
root 34.6015 13.3385 -0.580455 -83.4202 -88.5146 -221.447
lowerback 8.68171 -3.27316 0.21228
upperback 3.28472 -4.47286 -2.70636
thorax -1.6864 -2.25168 -2.45977
lowerneck -14.1582 3.35311 -6.72429
upperneck -12.3644 5.53204 12.0571
head -1.88642 2.63439 4.95544
rclavicle 4.77083e-014 2.8625e-014
rhumerus 18.4992 33.6753 -76.4857
rradius 53.3372
rwrist 13.3542
rhand -42.6295 -270.484
rfingers 7.12502
rthumb -15.5016 60.1173
lclavicle 4.77083e-014 2.8625e-014
lhumerus 22.274 -28.0158 46.1846
lradius 58.4537
lwrist -15.7683
lhand -60.8396 73.9202
lfingers 7.12502
lthumb -32.9508 -820.931
rfemur -50.7118 -2.89441 18.8496
rtibia 77.8284
rfoot -9.62088 -9.39718
rtoes -5.29954
lfemur -65.0386 0.709595 -27.7772
ltibia 80.8613
lfoot -30.1388 -4.83456
ltoes -6.9717
483
root 34.5474 13.332 -0.581524 -79.6896 -88.4933 -225.315
lowerback 8.75844 -3.30839 0.165732
upperback 3.1855 -4.52517 -2.71959
thorax -1.83129 -2.27822 -2.43366
lowerneck -13.8406 3.42897 -6.59468
upperneck -12.1902 5.60549 11.9862
head -1.88532 2.66936 4.90325
rclavicle 6.36111e-015 -4.13472e-014
rhumerus 17.9334 33.7202 -76.8826
rradius 53.139
rwrist 14.176
rhand -43.4173 -272.062
rfingers 7.12502
rthumb -16.2602 58.6
lclavicle 6.36111e-015 -4.13472e-014
lhumerus 21.8861 -28.1733 46.316
lradius 58.4838
lwrist -15.9066
lhand -60.7702 73.8156
lfingers 7.12502
lthumb -32.8848 -820.84
rfemur -51.5428 -3.05365 19.003
rtibia 79.1154
rfoot -10.1565 -9.27496
rtoes -4.62143
lfemur -64.6168 0.800604 -27.8717
ltibia 80.6123
lfoot -29.9314 -5.29474
ltoes -5.81732
484
root 34.5069 13.3226 -0.581633 -72.6172 -88.4703 -232.514
lowerback 8.8239 -3.33062 0.148204
upperback 3.09899 -4.55518 -2.68426
thorax -1.95405 -2.29302 -2.37706
lowerneck -13.1863 3.39407 -6.56642
upperneck -12.2496 5.55369 11.9403
head -1.99546 2.62971 4.8663
rclavicle -4.29375e-014 9.54166e-015
rhumerus 17.5276 33.8256 -76.9969
rradius 53.2766
rwrist 13.4222
rhand -42.8547 -271.852
rfingers 7.12502
rthumb -15.7184 58.7659
lclavicle -4.29375e-014 9.54166e-015
lhumerus 21.6339 -28.3101 46.6045
lradius 58.4318
lwrist -16.1515
lhand -60.9045 72.8725
lfingers 7.12502
lthumb -33.0125 -819.87
rfemur -52.3185 -3.24806 19.1482
rtibia 80.3997
rfoot -10.7268 -9.38232
rtoes -4.61917
lfemur -64.2437 0.814515 -27.9685
ltibia 80.4298
lfoot -29.8152 -5.55716
ltoes -5.93424
485
root 34.4619 13.3133 -0.575539 -56.7816 -88.3428 -248.574
lowerback 8.85595 -3.49483 0.366249
upperback 3.29886 -4.7536 -2.69688
thorax -1.79202 -2.39037 -2.49549
lowerneck -13.27 3.32833 -6.62611
upperneck -12.1738 5.47621 12.0834
head -1.95564 2.59524 4.92291
rclavicle -2.06736e-014 -7.95139e-014
rhumerus 17.9457 33.8391 -76.7972
rradius 53.277
rwrist 12.5764
rhand -42.2769 -270.173
rfingers 7.12502
rthumb -15.1619 60.4023
lclavicle -2.06736e-014 -7.95139e-014
lhumerus 21.8275 -28.1197 46.5807
lradius 58.3545
lwrist -16.2201
lhand -61.0461 72.1594
lfingers 7.12502
lthumb -33.1471 -819.128
rfemur -53.0232 -3.7709 19.3538
rtibia 81.7081
rfoot -11.2663 -9.56177
rtoes -5.02098
lfemur -63.6699 0.527362 -28.0236
ltibia 80.2606
lfoot -29.8644 -5.44775
ltoes -7.18326
486
root 34.4159 13.3022 -0.569787 -47.4304 -88.1642 -258.098
lowerback 8.96627 -3.69909 0.57405
upperback 3.49975 -5.00883 -2.74683
thorax -1.6787 -2.51589 -2.63558
lowerneck -14.0082 3.38897 -6.69493
upperneck -11.8312 5.56283 12.2601
head -1.75455 2.66648 5.01016
rclavicle 3.33958e-014 5.725e-014
rhumerus 18.5585 33.8505 -76.8033
rradius 53.0312
rwrist 12.7394
rhand -42.2923 -270.164
rfingers 7.12502
rthumb -15.1767 60.4124
lclavicle 3.33958e-014 5.725e-014
lhumerus 22.1264 -27.9019 46.1895
lradius 58.2517
lwrist -15.8929
lhand -61.1322 73.8734
lfingers 7.12502
lthumb -33.2291 -820.825
rfemur -53.9118 -4.21168 19.5722
rtibia 83.0375
rfoot -11.7241 -9.62773
rtoes -5.71517
lfemur -63.1574 0.311209 -28.0651
ltibia 80.0892
lfoot -29.8232 -5.40304
ltoes -5.9956
487
root 34.3735 13.2948 -0.567757 -46.0303 -88.1506 -259.632
lowerback 9.19449 -3.80935 0.637009
upperback 3.50128 -5.15003 -2.7344
thorax -1.81406 -2.58611 -2.62658
lowerneck -14.3263 3.48494 -6.68372
upperneck -11.5648 5.67714 12.1995
head -1.63813 2.74225 4.99892
rclavicle -4.6118e-014 -4.29375e-014
rhumerus 18.8338 33.9293 -77.0335
rradius 52.8045
rwrist 12.9025
rhand -41.6793 -90.4655
rfingers 7.12502
rthumb -14.5862 60.9984
lclavicle -4.6118e-014 -4.29375e-014
lhumerus 22.0067 -27.7612 46.0898
lradius 58.1995
lwrist -15.8394
lhand -60.6957 75.5068
lfingers 7.12502
lthumb -32.8139 -822.546
rfemur -54.9089 -4.32894 19.7978
rtibia 84.3424
rfoot -12.522 -9.45565
rtoes -5.68809
lfemur -62.7431 0.418445 -28.0805
ltibia 79.9012
lfoot -29.8087 -5.61061
ltoes -3.99071
488
root 34.3291 13.2916 -0.56354 -42.8608 -88.0724 -262.865
lowerback 9.19463 -3.84821 0.623264
upperback 3.46613 -5.19818 -2.65408
thorax -1.8445 -2.60945 -2.52913
lowerneck -14.0119 3.46404 -6.722
upperneck -11.5253 5.648 12.1038
head -1.67065 2.72807 4.96595
rclavicle 0 7.95139e-015
rhumerus 18.7608 33.9347 -77.0739
rradius 52.4465
rwrist 13.8548
rhand -42.1868 -90.4286
rfingers 7.12502
rthumb -15.0752 60.9975
lclavicle 0 7.95139e-015
lhumerus 21.6127 -27.6369 46.5875
lradius 58.2183
lwrist -16.3662
lhand -60.2515 75.2908
lfingers 7.12502
lthumb -32.3912 -822.417
rfemur -55.9958 -4.5721 20.0244
rtibia 85.6074
rfoot -13.3079 -9.23744
rtoes -4.92976
lfemur -62.3709 0.414558 -28.1005
ltibia 79.6409
lfoot -29.8703 -5.85377
ltoes -4.59265
489
root 34.2793 13.2886 -0.560198 -38.0841 -87.8304 -267.754
lowerback 9.13223 -3.90495 0.584919
upperback 3.42308 -5.27395 -2.6185
thorax -1.852 -2.64679 -2.46507
lowerneck -13.3272 3.44388 -6.90681
upperneck -11.6363 5.6541 12.1806
head -1.81345 2.72218 5.00278
rclavicle 2.38542e-014 2.22639e-014
rhumerus 18.4476 33.9391 -77.2043
rradius 52.6365
rwrist 13.5356
rhand -42.1198 -90.9017
rfingers 7.12502
rthumb -15.0106 61.4657
lclavicle 2.38542e-014 2.22639e-014
lhumerus 21.3689 -27.7443 46.9133
lradius 58.1579
lwrist -16.6007
lhand -60.2374 74.4819
lfingers 7.12502
lthumb -32.3778 -821.611
rfemur -56.9277 -4.98675 20.2125
rtibia 86.8345
rfoot -13.5693 -9.23068
rtoes -5.28011
lfemur -61.852 0.222999 -28.1368
ltibia 79.3192
lfoot -29.9017 -6.03125
ltoes -5.92852
490
root 34.2269 13.2907 -0.560195 -34.7077 -87.6846 -271.261
lowerback 9.25298 -3.97506 0.634063
upperback 3.35718 -5.36336 -2.63094
thorax -1.99664 -2.69147 -2.48339
lowerneck -13.0183 3.49137 -6.95074
upperneck -11.5725 5.72049 12.16
head -1.84911 2.75609 4.99576
rclavicle -5.40694e-014 -3.18055e-015
rhumerus 18.0214 33.8738 -77.6235
rradius 52.7038
rwrist 13.4964
rhand -42.3343 -270.007
rfingers 7.12502
rthumb -15.2172 60.5723
lclavicle -5.40694e-014 -3.18055e-015
lhumerus 21.4108 -27.9411 46.74
lradius 58.0389
lwrist -16.442
lhand -60.4063 74.9749
lfingers 7.12502
lthumb -32.5386 -822.071
rfemur -57.7555 -5.23416 20.4649
rtibia 88.0213
rfoot -13.7582 -9.15965
rtoes -5.59366
lfemur -61.4431 0.214143 -28.1705
ltibia 78.9758
lfoot -29.7941 -6.30379
ltoes -6.28801
